<?xml version="1.0" encoding="utf-8"?>
<!-- Generator: Adobe Illustrator 20.1.0, SVG Export Plug-In . SVG Version: 6.00 Build 0)  -->
<svg version="1.1" id="Calque_3" xmlns="http://www.w3.org/2000/svg" xmlns:xlink="http://www.w3.org/1999/xlink" x="0px" y="0px"
	 viewBox="0 0 512 512" style="enable-background:new 0 0 512 512;" xml:space="preserve">
<style type="text/css">
	.st0{fill:#FFFFFF;stroke:#000000;stroke-miterlimit:10;}
</style>
<g id="Calque_1_1_">
	<rect class="st0" width="512" height="512"/>
	<path d="M254.2,287.6c74.7,0,149.5,0,224.2,0c4.3,0,4.3,0,4.3,4.4c0,47.7,0,95.5,0,143.2c0,8.2-2.6,15.7-6.7,22.6
		c-4.2,7.2-9.9,13.1-16.7,17.9c-5.8,4-12,7.1-19.1,7.9c-4,0.4-8.1,0.9-12.1,0.9c-117.3,0-234.6,0-352,0c-9,0-17.1-2.7-24.7-7.4
		c-6.8-4.2-12.3-9.5-16.8-16c-4-5.8-7.2-12-7.9-19.1c-0.4-4.2-0.9-8.4-0.9-12.6c-0.1-45.8,0-91.7,0-137.5c0-4.4,0-4.4,4.3-4.4
		C104.7,287.6,179.4,287.6,254.2,287.6z"/>
	<path d="M247.7,116.4c-8.3-4.8-15.9-9.3-23.6-13.8c-3.6-2.1-7-4.3-10.7-6.1c-2.1-1.1-1.7-2.8-1.8-4.4s0.8-2.4,2.3-2.7
		c3.6-0.9,7.1-1.8,10.7-2.8c4.1-1.1,8.2-2.3,12.3-3.3c3.4-0.9,6.8-1.8,10.3-2.6c4.3-1.1,8.7-2.3,13-3.4c4.6-1.2,9.2-2.4,13.8-3.6
		c4.3-1.1,8.7-2.3,13-3.4c2.9-0.8,5.8-1.7,8.7-2.4c3.2-0.8,5.7,0.9,8.3,2.5c7.6,4.5,15.2,9,22.8,13.4c4.3,2.5,8.5,5,12.9,7.3
		c1,0.5,2.6,0.6,3.7,0.4c5-1.1,9.9-2.4,14.8-3.7c4.2-1.1,8.4-2.5,12.7-3.6c3.1-0.8,6.2-1.5,9.3-2.3c4.7-1.2,9.3-2.5,13.9-3.7
		c1.2-0.3,2.4-0.5,3.7-0.8c0-0.2,0.1-0.5,0.1-0.7c-2-1.2-3.9-2.5-5.9-3.7c-9.2-5.4-18.5-10.8-27.8-16.1c-2.1-1.2-1.6-3.1-1.3-4.6
		c0.2-0.9,1.5-1.9,2.5-2.3c4.4-1.4,8.9-2.6,13.4-3.8c3.3-0.9,6.6-1.5,9.8-2.4c4.4-1.2,8.8-2.4,13.2-3.6c4.4-1.2,8.8-2.2,13.1-3.4
		c4.7-1.2,9.3-2.5,13.9-3.8c4.1-1.1,8.3-2.1,12.4-3.2c1.1-0.3,2.2-0.7,3.1-1.3c3.3-2.4,7.6-0.5,8.4,3.4c0.9,4.2,2.2,8.4,3.3,12.5
		c0.9,3.4,1.8,6.8,2.7,10.2c1.2,4.4,2.4,8.8,3.6,13.2c1.1,4,2.3,8,3.1,12.1c0.7,3.3-1.1,4.8-5.5,5.8c-4.6,1-9.1,2.5-13.7,3.7
		c-4.5,1.2-9.1,2.2-13.7,3.3c-4.3,1.1-8.6,2.4-12.9,3.6c-2.9,0.8-5.9,1.5-8.8,2.3c-4.9,1.3-9.8,2.6-14.7,3.9
		c-5.8,1.5-11.6,2.8-17.4,4.3c-4.4,1.1-8.8,2.5-13.2,3.7c-5.7,1.5-11.5,2.8-17.2,4.3c-4.3,1.1-8.6,2.4-13,3.6
		c-4.3,1.1-8.6,2.2-12.9,3.3c-4.7,1.2-9.4,2.6-14.2,3.8c-5.8,1.5-11.6,2.8-17.5,4.3c-4.3,1.1-8.6,2.4-13,3.6
		c-4.3,1.1-8.6,2.2-12.8,3.3c-4.7,1.2-9.3,2.5-14,3.7c-4.2,1.1-8.4,2.2-12.6,3.3c-4.7,1.2-9.5,2.5-14.2,3.8
		c-4.2,1.1-8.4,2.1-12.6,3.2c-4.8,1.2-9.5,2.5-14.3,3.8c-4.2,1.1-8.4,2.1-12.6,3.2c-4.7,1.2-9.5,2.5-14.2,3.8
		c-4.3,1.1-8.6,2.1-12.8,3.2c-4.7,1.2-9.4,2.5-14,3.7c-4.3,1.1-8.5,2.2-12.8,3.3c-1.2,0.3-2.4,0.7-3.6,0.9c-3.5,0.8-5.9-1.8-8.5-3.3
		c-12.1-6.9-24.1-14-36.1-21c-6.7-3.9-13.3-7.9-20-11.8c-2.1-1.2-3.2-4.7-2-6.7c0.3-0.5,1-0.9,1.5-1.1c7.1-1.8,14.2-3.4,21.3-5.2
		c7.1-1.8,14.2-3.9,21.4-5.8c8.2-2.1,16.5-4.1,24.7-6.3c4.3-1.1,8.6-2.7,13-3.6c2.8-0.5,5.7-0.7,8.6,1.1c7.1,4.5,14.5,8.5,21.7,12.7
		c4.6,2.7,9.5,5.1,13.8,8.2c3,2.2,5.5,1,8.2,0.3c4.5-1.1,9-2.4,13.5-3.6c4.6-1.2,9.1-2.5,13.7-3.7c4.1-1.1,8.2-2.2,12.4-3.2
		C238.7,118.5,243,117.5,247.7,116.4z"/>
	<path d="M123.9,276.5c-14.1,0-28.2,0-42.2-0.1c-1.2,0-3.5-0.7-3.5-1.3c-0.2-1.7-0.1-3.9,0.9-5c4.1-4.6,8.6-8.8,12.9-13.2
		c6.2-6.2,12.4-12.3,18.6-18.5c6.1-6.1,12.2-12.3,18.4-18.4c0.9-0.9,2.6-1.5,4-1.5c28.5-0.1,57-0.1,85.5,0c1.1,0,3,0.7,3.1,1.2
		c0.2,1.7,0.3,4.1-0.6,5.1c-7.7,8-15.7,15.7-23.5,23.4c-5.9,5.9-11.8,11.8-17.7,17.6c-3,3-5.9,6.1-9.1,9c-1,0.9-2.8,1.5-4.2,1.6
		C152.2,276.5,138,276.5,123.9,276.5z"/>
	<path d="M332,218.4c14.1,0,28.2,0,42.2,0.1c1.4,0,3.5,0.6,4,1.6c0.9,1.7,0.2,3.6-1.4,5.1c-14.8,14.7-29.8,29.3-44.3,44.4
		c-4.9,5.2-9.9,7.2-17,7.1c-25.7-0.5-51.5-0.2-77.2-0.2c-1.2,0-3.2-0.5-3.4-1.2c-0.5-1.8-1-3.8,0.8-5.6
		c16.8-16.7,33.5-33.4,50.3-50.1c0.8-0.7,2.2-1.1,3.3-1.1C303.5,218.4,317.8,218.4,332,218.4L332,218.4z"/>
	<path d="M63.1,166.3c21.1-1,38,16.9,37.7,38.1c-0.3,20.2-16.7,37.8-38.4,37.1c-10.4-0.4-19.1-3.8-26.4-11
		c-8.6-8.3-10.5-18.6-10.4-30.2C25.7,184,41.9,165,63.1,166.3z"/>
	<path d="M436.8,276.5c-14.2,0-28.3,0-42.5-0.1c-1.2,0-3.2-0.7-3.3-1.3c-0.3-1.6,0.2-3.3,0.6-5c0.2-0.6,1-1.1,1.5-1.6
		c16.3-16.3,32.5-32.5,48.8-48.7c0.8-0.8,2.1-1.3,3.2-1.3c11.6-0.1,23.2,0,34.7-0.1c2.1,0,2.8,0.9,2.8,2.9c0,17.4,0,34.8,0,52.2
		c0,2.3-1,3-3.2,3C465.3,276.4,451.1,276.5,436.8,276.5L436.8,276.5z"/>
</g>
</svg>
