<?xml version="1.0" encoding="utf-8"?>
<!-- Generator: Adobe Illustrator 20.1.0, SVG Export Plug-In . SVG Version: 6.00 Build 0)  -->
<svg version="1.1" id="Calque_4" xmlns="http://www.w3.org/2000/svg" xmlns:xlink="http://www.w3.org/1999/xlink" x="0px" y="0px"
	 viewBox="0 0 512 512" style="enable-background:new 0 0 512 512;" xml:space="preserve">
<style type="text/css">
	.st0{fill:#00B0EA;}
</style>
<g>
	<path class="st0" d="M364,238.1c-5.2-3.2-10.2-6.9-15.5-10c-4.3-2.5-7.7-7-13.7-6.1c0.2-0.3,0.3-0.5,0.5-0.8
		c-1.1-0.9-2.2-1.7-3.6-2.8c0.2-1.7,0.6-3.8,0.6-5.9c0.1-13.3,0-26.6,0-39.9c0-2.3-0.3-4.7-0.5-7.2c-1.6,0.3-3.7-1.1-3.8,1.3
		c-0.1,2-1.3,2.1-2.6,2.3c-3.9,0.5-7.8,1.1-11.7,1.3c-9.5,0.6-18.9,1.2-28.4,1.3c-25.6,0.3-51.3,0.3-76.8-2.7
		c-1.3-0.2-3.5-1-3.5-1.5c0-3.3-2-2.1-3.8-1.9c-0.3,1.9-0.9,3.9-0.9,5.8c-0.1,13.7,0,27.5,0,41.2c0,0.8,0,1.6,0.2,2.4
		c0.2,1.3,0.6,2.6,0.9,4.1c-2.3,0-3.8,0.4-3.6,1.9c-2.6,1-5,1.4-7,2.7c-7.3,4.6-14.4,9.7-21.8,14.2c-2.4,1.5-3.5,2.8-2.5,5.8
		c5.3,0,10.7,0,16.3,0c0,1.1,0,1.8,0,2.5c0,11.2-0.2,22.4,0.1,33.6c0.1,4.2-0.8,7.7-3.8,10.6c-1.2,1.2-2.8,2.6-2.9,4
		c-0.4,3.8-0.1,7.7-0.1,11.6c3.4,0,6.4-0.2,9.5,0.1c1.9,0.2,4.2,0.6,5.5,1.8c8,7,15.7,14.1,23.5,21.3c7.1,6.6,14.2,13.2,21.3,19.8
		c2.3,2.1,4.6,4.3,7.2,6.7c-0.8,0.7-1.5,1.1-2,1.6c-8.3,7.7-16.6,15.4-25,23c-3.7,3.4-3.3,8.1,1.1,10.8c1.4,0.9,2.7,1.2,4.2,0.2
		c0.5-0.3,1.2-0.4,2.4-0.7c-0.9,3.2-2.1,5.8-2.2,8.4c-0.2,4.6-2.3,7.7-5.6,10.6c-4.2,3.6-8.3,7.4-12.3,11.3c-3,2.9-2.4,6.9,1.2,10.6
		c2.6,2.7,5.4,2.6,8.6-0.3c6-5.6,12.1-11.2,18.1-16.8c5.7-5.3,11.4-10.6,17.1-15.9c4.1-3.8,8.2-7.7,12.4-11.5
		c2.6-2.4,5.3-4.7,8.1-7.1c3.9,3.6,7.8,7,11.5,10.4c1.7,1.5,3.3,3.1,4.9,4.6c3.4,3.2,6.8,6.3,10.2,9.5c3.9,3.6,7.7,7.3,11.6,10.9
		c3.6,3.4,7.2,6.9,11,10.1c3.5,2.9,6.1,6.8,10.5,8.4c0.4,0,0.9,0,1.3,0c1.5-1.4,3.1-2.7,4.4-4.2c2.5-3,2.6-6.1,0.3-8.3
		c-4.5-4.2-9.1-8.4-13.7-12.5c-2.7-2.3-4.4-4.9-4.9-8.6c-0.4-3.4-1.5-6.8-2.4-10.7c0.8,0.6,1.1,0.7,1.3,0.9c3.3,2.2,4.9,2,7.3-0.8
		c2.4-2.7,2.8-6.1,0.2-8.4c-8.4-7.5-16.5-15.3-24.8-22.9c-2.9-2.7-3-2.6-0.1-5.2c6.8-6.2,13.5-12.4,20.3-18.6
		c8.5-7.9,17.2-15.6,25.6-23.6c3.4-3.3,6.7-5.8,11.7-4.7c1.4,0.3,1.8-0.5,1.8-1.8c-0.1-2.5-0.2-4.9,0-7.4c0.1-1.8-0.4-3.3-1.7-4.6
		c-1.7-1.8-3.1-3.8-4.6-5.7c-0.4-0.5-0.6-1.3-0.6-2c-0.1-12.8,0-25.7-0.1-38.5c0-1.8,0.4-2.4,2.4-2.3c4.7,0.2,9.5,0.1,14.2,0.1
		C367.1,241.1,366.2,239.5,364,238.1z M194.5,271.1c-1.8,1.7-3.2,3.9-4.8,5.9c-0.5,0.6-1.2,0.9-2.3,1.7c0-1.6,0-2.5,0-3.5
		c0-10.7,0-21.5,0-32.2c0-1.6,0.4-2.6,1.7-3.6c1.9-1.4,3.7-3,5.6-4.5c0.8-0.7,1.8-1.2,3.2-2.2c0,9.9-0.1,19,0.1,28.2
		C197.9,264.8,197.5,268.2,194.5,271.1z M256.6,371.9c-6,5.4-12,10.9-18,16.4c-1.8,1.7-3.6,3.5-5.4,5.2c-2.2,2-4.3,4-6.6,6
		c-0.3,0.3-0.8,0.3-1.8,0.7c0.7-3.5,1.5-6.5,1.8-9.5c0.4-3.8,2.4-6.5,5.2-8.9c6.2-5.5,12.3-11.3,18.4-16.9c0.3-0.3,0.7-0.5,1.3-0.9
		c1.8,1.7,3.5,3.2,5.2,4.8C257.8,369.8,257.7,370.9,256.6,371.9z M253,346.3c-12.6-11.6-25.2-23.2-37.9-34.9c2.5,0,4.8-0.1,7,0
		c1.8,0.1,3.7,0.5,5.5,0.4c2.9-0.2,4.1,2,5.8,3.5c8.6,7.9,17.2,15.9,25.7,23.8c0.2,0.2,0.4,0.4,0.7,0.8
		C257.7,342,255.4,344.1,253,346.3z M248.2,313c14,0,27.3,0,41,0c-6.9,6.4-13.7,12.6-20.5,18.9C261.9,325.6,255.3,319.5,248.2,313z
		 M268.7,360.7c-2.3-2.1-4.5-4.2-7-6.4c2.5-2.3,4.7-4.3,7-6.5c2.3,2.1,4.4,4.1,6.9,6.4C273.3,356.4,271.1,358.5,268.7,360.7z
		 M295.7,372.6c3.9,3.6,7.7,7.1,11.6,10.7c1.4,1.3,2.4,2.7,2.7,4.7c0.5,3.5,1.5,6.9,2.2,10.3c0.1,0.5,0.1,1,0.1,1.5
		c-1.5-0.2-30.6-26.5-32.9-29.7c2.1-2,4.3-4,6.6-6.3C289.4,366.8,292.5,369.7,295.7,372.6z M284.4,346.3c-2.3-2.2-4.5-4.2-7-6.5
		c2.9-2.7,5.6-5.2,8.4-7.8c7.1-6.6,14.1-13.2,21.3-19.7c0.9-0.8,2.7-0.8,4.1-1c3.8-0.4,7.6-0.7,11.6-0.6
		C310.1,322.6,297.3,334.4,284.4,346.3z M326.7,219.3c-2,0-1.9,1.4-1.9,2.6c0,17,0.1,34,0.1,51.1c0,0.9,0.2,1.7,0.4,3
		c-39.3,4.7-78.7,4.9-118.1,0c0.2-1.8,0.4-3.1,0.4-4.3c0-16.3,0-32.6,0-48.8c0-1.6,0.4-3.4-2.1-3.6c-0.3,0-0.6-0.8-1-1.4
		c41.3,5.9,82.2,5.3,123.4,0.3C327.6,218.4,327.1,219.3,326.7,219.3z M345,278.2c0,0.2-0.1,0.4-0.3,1c-0.9-1.1-1.6-1.9-2.3-2.8
		c-2.3-2.9-4.7-5.8-7-8.7c-0.4-0.5-0.8-1.3-0.8-2c0-10.5,0.1-21.1,0.2-31.6c0-0.4,0.1-0.7,0.2-1.6c3.4,2.8,6.5,5.3,9.4,7.8
		c0.4,0.3,0.6,1,0.6,1.5C345.1,254,345.1,266.1,345,278.2z"/>
	<path class="st0" d="M18.5,309.4c0.6-0.2,1.3-0.7,1.9-1.4c0.6-0.7,1.1-1.7,1.4-3.1c0.3-1.4,0.3-2.5,0-3.4c-0.3-0.9-0.7-1.5-1.1-2
		c-0.5-0.5-0.9-0.8-1.4-0.9c-0.5-0.2-0.7-0.2-0.8-0.3c-0.9-0.2-1.6-0.6-2.2-1.2c-0.6-0.6-1-1.3-1.3-2.2s-0.5-1.9-0.6-3
		c-0.1-1.1-0.1-2.3,0-3.5c0.1-1.2,0.2-2.5,0.3-3.8c0.2-1.3,0.3-2.6,0.5-3.8c4.1,2.4,7.9,4.6,11.2,6.6c3.4,2,6.4,3.9,9.2,5.6
		s5.3,3.3,7.6,4.7c2.3,1.4,4.5,2.7,6.6,3.9c2.1,1.2,4.1,2.2,6.1,3.2s4,1.8,6,2.6c0.5,0.3,1,0.4,1.4,0.5c1.4,0.3,2.5,0.1,3.3-0.6
		s1.4-1.8,1.7-3.1c0.1-0.4,0.1-1-0.1-1.5c-0.2-0.6-0.4-1.2-0.8-1.7c-0.4-0.6-0.9-1.1-1.5-1.7c-0.6-0.5-1.3-1-2-1.3
		c-1.6-0.8-3.6-1.8-5.8-3c-2.3-1.2-4.7-2.5-7.4-3.9c-2.7-1.4-5.5-2.9-8.4-4.4c-2.9-1.5-5.9-3-8.9-4.5c-3-1.5-5.9-2.8-8.8-4.2
		c-2.9-1.3-5.6-2.5-8.1-3.4c0.6-2.4,1.3-4.6,2-6.8c0.7-2.2,1.4-4.3,2.1-6.4c0.7-2.1,1.3-4.1,2-6c0.6-1.9,1.1-3.8,1.5-5.6
		c0.1-0.5,0.1-1,0-1.5c-0.1-0.5-0.3-1-0.6-1.4c-0.3-0.4-0.6-0.8-1-1.1c-0.4-0.3-0.8-0.5-1.3-0.6c-0.7-0.2-1.5-0.1-2.2,0.2
		c-0.7,0.3-1.3,1-1.8,2.1c-1.9,4.7-3.5,9.2-4.8,13.6c-1.3,4.4-2.4,8.6-3.3,12.7c-0.6,3-1.2,5.9-1.7,8.7c-0.5,2.8-0.8,5.5-0.9,8.1
		c-0.2,2.5-0.1,4.9,0.1,7.1c0.2,2.2,0.7,4.1,1.4,5.8c0.7,1.7,1.7,3.1,3,4.2c1.3,1.1,2.9,1.9,4.9,2.3
		C16.9,309.7,17.7,309.6,18.5,309.4z"/>
	<path class="st0" d="M41.8,242.6c1.2,1.2,2.5,2.4,3.8,3.7s2.7,2.7,4.1,4c1.4,1.4,2.7,2.6,3.8,3.7c-2.5-1.2-5-2.5-7.5-3.9
		c-1.1-0.6-2.2-1.2-3.4-1.9c-1.2-0.7-2.4-1.4-3.6-2.2c-1.2-0.8-2.4-1.6-3.6-2.4c-1.2-0.8-2.3-1.7-3.4-2.5c-3-2.9-5.3-5.3-6.7-7.2
		c-1.5-1.9-2.1-3.1-1.9-3.7c0.2-0.4,1.1-0.3,2.8,0.3c1.1,0.4,2.7,1.4,4.8,2.9c2.1,1.5,4.6,3.6,7.5,6.2
		C39.6,240.5,40.6,241.5,41.8,242.6z M57.5,251.2c-1.1-1.3-2.4-2.8-3.9-4.5c-1.5-1.7-3-3.5-4.7-5.3c-1.7-1.8-3.5-3.7-5.3-5.5
		c-1.8-1.8-3.7-3.6-5.6-5.2c-1.9-1.6-3.7-3-5.5-4.3c-1.8-1.2-3.6-2.2-5.2-2.8c-1.1-0.4-2.2-0.7-3.1-0.9c-1-0.2-1.9-0.2-2.7,0.1
		c-0.8,0.2-1.6,0.6-2.2,1.3c-0.7,0.6-1.2,1.6-1.7,2.8c-0.9,2.3-1,4.6-0.4,6.9c0.6,2.3,1.8,4.5,3.4,6.7c1.7,2.2,3.8,4.3,6.3,6.3
		c2.5,2,5.3,4,8.2,5.8s6,3.6,9.1,5.2c3.1,1.6,6.1,3,9,4.4s5.5,2.5,7.9,3.4c2.4,1,4.4,1.7,5.9,2.3c0.9,0.4,1.9,0.7,2.8,1
		c0.9,0.3,1.8,0.4,2.6,0.5c0.8,0,1.5-0.1,2.1-0.3s1-0.8,1.3-1.5c0.2-0.6,0.3-1.1,0.2-1.5s-0.3-0.9-0.7-1.4s-0.9-1-1.5-1.6
		c-0.6-0.6-1.3-1.3-2.2-2.2c-1.7-1.8-3.2-3.6-4.6-5.6c-1.4-2-2.7-3.8-3.8-5.5c-1.1-1.7-2-3.2-2.6-4.5c-0.7-1.3-1-2.2-1.1-2.6
		l0.4-0.7c0,0.1,0.2,0.3,0.6,0.7c0.3,0.4,0.8,0.9,1.3,1.4c0.6,0.6,1.2,1.2,1.9,1.8c0.7,0.7,1.5,1.3,2.3,1.9s1.6,1.2,2.4,1.7
		c0.8,0.5,1.6,0.9,2.3,1.2c1.1,0.4,2.3,0.7,3.6,0.9c1.3,0.2,2.6,0.2,3.8,0c1.2-0.2,2.4-0.6,3.4-1.3c1-0.7,1.7-1.6,2.2-2.8
		c0.3-0.8,0.5-1.7,0.6-2.7s0.1-2,0-3c-0.1-1-0.2-2.1-0.4-3.2c-0.2-1.1-0.4-2.1-0.7-3c-0.2-1-0.5-1.8-0.7-2.6c-0.2-0.8-0.4-1.5-0.6-2
		l-9.1-2.9c1,1.7,1.8,3.4,2.5,5.1c0.3,0.7,0.6,1.4,0.8,2.2c0.2,0.8,0.4,1.5,0.5,2.2c0.1,0.7,0.2,1.5,0.2,2.1c0,0.7-0.1,1.3-0.3,1.8
		c-0.2,0.4-0.6,0.7-1.2,0.7c-0.6,0.1-1.4-0.1-2.3-0.4c-1.6-0.6-3.1-1.4-4.4-2.4s-2.6-2-3.9-3.1s-2.5-2.1-3.8-3.1
		c-1.3-1-2.7-1.8-4.2-2.3c-0.8-0.3-1.4-0.4-2-0.4c-0.6,0-1,0.1-1.4,0.3c-0.4,0.2-0.7,0.4-0.9,0.7c-0.2,0.3-0.4,0.6-0.5,0.8
		c-0.4,1.1-0.5,2.4-0.1,3.9c0.3,1.5,0.8,3.1,1.6,4.8c0.7,1.7,1.6,3.4,2.5,5c0.9,1.7,1.8,3.2,2.7,4.6L57.5,251.2z"/>
	<path class="st0" d="M75,222.1c-0.6-0.4-1.3-0.8-1.9-1.4c-0.6-0.5-1.2-1.1-1.7-1.7c-0.5-0.6-1-1.3-1.3-2c-0.3-0.7-0.5-1.5-0.4-2.3
		c0-0.8,0.3-1.7,0.7-2.6c0.3-0.5,0.8-0.8,1.6-0.8c0.8,0,1.7,0.2,2.6,0.7c0.7,0.4,1.2,1,1.7,1.9c0.4,0.9,0.7,1.9,0.9,3
		c0.2,1.1,0.3,2.2,0.2,3.3c-0.1,1.1-0.3,2-0.7,2.8C76.2,222.8,75.6,222.5,75,222.1z M95.4,222.9c0.4-1.4,0.6-2.8,0.8-4.2
		c0.1-1.4,0.2-2.8,0.1-4.2c0-1.4-0.1-2.7-0.3-3.9c-0.4-2.9-1-5.8-1.9-8.6l-6.4,1.8c0.4,1.3,0.7,2.7,0.9,4.4c0.3,1.7,0.4,3.4,0.5,5.1
		c0,1.7-0.1,3.4-0.3,5.1c-0.2,1.7-0.7,3.1-1.4,4.4c-0.2,0.4-0.5,0.8-0.7,1.1s-0.6,0.6-1,0.8c-0.4,0.2-0.8,0.4-1.4,0.5
		c-0.5,0.1-1.2,0.2-1.9,0.2c0.5-2.1,0.7-4.2,0.6-6.2c-0.1-2.1-0.4-4-0.9-5.7c-0.5-1.8-1.3-3.3-2.3-4.7c-1-1.3-2.1-2.4-3.4-3.1
		c-1.2-0.6-2.4-1-3.6-1.1c-1.2-0.1-2.3,0-3.4,0.4s-2.1,1-3,1.8c-0.9,0.8-1.7,1.8-2.3,3c-0.8,1.5-1.2,2.9-1.4,4.4
		c-0.1,1.5,0,2.9,0.4,4.3c0.4,1.4,0.9,2.8,1.7,4.1c0.8,1.3,1.6,2.6,2.7,3.7s2.1,2.2,3.3,3.1c1.2,0.9,2.4,1.7,3.6,2.4
		c1.7,0.9,3.6,1.6,5.4,2c1.9,0.4,3.7,0.4,5.4,0c1.7-0.3,3.4-1.1,4.9-2.2c1.5-1.1,2.8-2.6,3.9-4.6C94.5,225.6,95,224.3,95.4,222.9z"
		/>
	<path class="st0" d="M110.8,181.5c-1.3-2.3-2.6-4.8-3.9-7.4c-1.3-2.6-2.5-5.2-3.6-7.8c-1.2-2.7-2.2-5.3-3.1-7.8
		c-0.9-2.5-1.8-5-2.5-7.3c-0.7-2.3-1.2-4.4-1.6-6.2c-0.4-1.9-0.5-3.4-0.5-4.7c0-1.3,0.3-2.1,0.8-2.6c0.6-0.6,1.2-0.8,1.9-0.9
		c0.7,0,1.4,0.2,2.1,0.6c0.7,0.4,1.5,1,2.4,1.8c0.8,0.8,1.8,1.8,2.8,2.8c1.5,1.6,3,3.4,4.5,5.5c1.5,2.1,3,4.2,4.5,6.4
		c1.5,2.2,2.9,4.4,4.2,6.6c1.3,2.2,2.6,4.2,3.7,6.1c1.1,1.9,2.1,3.4,2.9,4.7c0.8,1.3,1.4,2.2,1.9,2.6c0.6,0.7,1.3,1.2,1.9,1.5
		s1.2,0.5,1.7,0.6c0.6,0.1,1.1,0,1.6-0.2c0.5-0.2,0.9-0.5,1.3-0.8c0.4-0.4,0.8-0.8,1.1-1.3c0.3-0.5,0.6-1,0.8-1.6s0.3-1.1,0.2-1.8
		c0-0.6-0.2-1.2-0.5-1.8c-1.3-2-2.7-4.2-4.1-6.5s-2.9-4.7-4.4-7.1c-1.4-2.4-2.9-4.8-4.2-7.3c-1.4-2.4-2.6-4.8-3.7-7.2
		c-1.1-2.3-2.1-4.6-2.9-6.8c-0.8-2.2-1.4-4.1-1.7-6c-0.3-1.8-0.4-3.4-0.1-4.9c0.2-1.4,0.8-2.6,1.7-3.4c0.5-0.5,1-0.7,1.5-0.7
		c0.5,0,1.1,0.1,1.6,0.4c0.6,0.3,1.2,0.7,1.8,1.3c0.6,0.6,1.3,1.3,2.1,2.1c1.2,1.3,2.4,2.7,3.5,4.3c1.1,1.6,2.2,3.2,3.3,4.9
		c1.1,1.7,2.1,3.4,3.2,5.2c1,1.7,2.1,3.5,3.1,5.1c1,1.7,2,3.3,3,4.8c1,1.5,2,2.9,3,4.2c0.1,0.2,0.3,0.3,0.4,0.5
		c0.1,0.2,0.3,0.3,0.4,0.5c1.2,1.3,2.4,2.2,3.7,2.8c1.3,0.6,2.6,0.9,4,0.9c1.3,0,2.6-0.2,3.8-0.7s2.3-1.2,3.2-2.1
		c1-0.9,1.8-2,2.5-3.2c0.7-1.2,1.2-2.6,1.6-4.2c0.3-1.6,0.5-3.3,0.4-5.3s-0.4-4.1-0.9-6.4c-1.8-0.9-3.1-1.5-4.1-2
		c-0.9-0.5-1.6-0.8-2-1c-0.5-0.2-0.7-0.3-0.7-0.3c0.4,2.3,0.7,4.4,0.8,6.4c0.1,0.9,0.1,1.7,0.1,2.6c0,0.9-0.1,1.7-0.2,2.5
		c-0.1,0.8-0.3,1.5-0.5,2.1s-0.6,1.1-1,1.5c-0.7,0.7-1.5,0.9-2.3,0.8c-0.8-0.1-1.7-0.7-2.7-1.7c-0.8-0.8-1.6-1.9-2.4-3.2
		c-0.8-1.3-1.7-2.8-2.7-4.4c-0.9-1.6-1.9-3.3-3-5.1c-1-1.8-2.1-3.6-3.3-5.5c-1.1-1.8-2.3-3.6-3.6-5.4c-1.3-1.8-2.6-3.4-4-4.9
		c-1.5-1.6-3.1-3-4.7-4.2c-1.6-1.2-3.2-2-4.8-2.6c-1.6-0.6-3.1-0.8-4.5-0.6s-2.7,0.7-3.7,1.7c-1.5,1.4-2.7,3.2-3.4,5.3
		c-0.7,2.1-1,4.5-0.9,7.1c0.1,2.6,0.6,5.4,1.5,8.4c0.9,3,2.2,6.1,4,9.3l-0.5,0.5c-1-1.4-1.9-2.7-2.7-3.8c-0.4-0.5-0.7-1-1.1-1.5
		c-0.4-0.5-0.7-1-1-1.4c-0.3-0.4-0.6-0.8-0.8-1.1c-0.2-0.3-0.4-0.6-0.6-0.7c-1.4-1.5-2.8-2.8-4.1-3.6c-1.3-0.9-2.6-1.4-3.7-1.7
		c-1.2-0.3-2.3-0.3-3.3,0c-1,0.3-1.9,0.8-2.7,1.5c-1.1,1-1.9,2.3-2.5,3.9c-0.6,1.6-0.9,3.5-0.9,5.6c-0.1,2.1,0.1,4.4,0.5,6.8
		c0.4,2.5,1,5,1.8,7.8c0.8,2.7,1.9,5.5,3.1,8.3c1.2,2.9,2.6,5.7,4.2,8.6c-0.9-1.5-1.9-3.1-3-4.8c-1.1-1.7-2.2-3.4-3.3-5.1
		c-1.1-1.7-2.2-3.2-3.3-4.7c-1.1-1.5-2-2.7-3-3.7c-1.2-1.3-2.4-2.4-3.5-3.3c-1.1-0.9-2.3-1.5-3.4-1.9c-1.1-0.4-2.2-0.4-3.3-0.2
		c-1.1,0.3-2.2,0.9-3.3,1.9c-0.8,0.8-1.6,1.8-2.2,3c-0.6,1.2-1,2.6-1.1,4.3c-0.1,1.7,0.1,3.5,0.6,5.7c0.5,2.1,1.4,4.5,2.7,7.2
		c0,0.1,0,0.3,0.1,0.4c0.2,0.2,0.4,0.4,0.7,0.6c0.3,0.2,0.5,0.4,0.8,0.5c0.3,0.1,0.5,0.2,0.8,0.3c0.2,0.1,0.4,0,0.5,0
		c0.3-0.3,0.5-0.6,0.6-0.9c0.1-0.3,0.1-0.7,0-1c-0.1-1.3-0.2-2.6-0.1-3.8s0.2-2.5,0.4-3.6s0.5-2.1,0.8-2.9c0.3-0.9,0.7-1.5,1.1-1.9
		c0.3-0.2,0.5-0.3,0.8-0.3c0.3,0,0.5,0.1,0.8,0.3c0.3,0.2,0.5,0.4,0.7,0.6c0.2,0.2,0.4,0.4,0.6,0.6c1.6,2,3,3.8,4.4,5.5
		c1.4,1.7,2.7,3.4,3.9,5c1.2,1.6,2.5,3.3,3.6,5c1.2,1.7,2.4,3.4,3.6,5.2c1.2,1.8,2.4,3.8,3.7,5.9c1.3,2.1,2.6,4.4,4,6.9
		c0.4,0.7,0.9,1.5,1.4,2.1c0.5,0.7,1.1,1.4,1.7,2.1c0.3,0.4,0.7,0.6,1.2,0.7c0.5,0.1,1,0.1,1.5,0s1-0.3,1.6-0.6
		c0.5-0.3,1-0.7,1.5-1.1c0.4-0.4,0.8-0.8,1.1-1.2c0.3-0.5,0.6-1,0.8-1.5c0.2-0.5,0.3-1.1,0.2-1.7c0-0.6-0.3-1.2-0.7-1.8
		C113.5,185.9,112.1,183.8,110.8,181.5z"/>
	<path class="st0" d="M170.7,139.7c-0.8,0-1.5-0.3-2.2-0.7c-0.7-0.4-1.3-1-1.8-1.7c-0.6-0.7-1.1-1.5-1.5-2.4
		c-0.7-1.3-1.2-2.7-1.6-4.3c-0.4-1.6-0.6-3.1-0.6-4.6c0-1.5,0.2-2.8,0.6-3.9c0.4-1.1,1.1-1.9,1.9-2.4c0.7-0.3,1.3-0.4,2-0.3
		c0.7,0.1,1.3,0.4,1.9,0.9s1.2,1.1,1.8,1.9c0.6,0.8,1.1,1.6,1.6,2.6c0.6,1.2,1.1,2.6,1.5,4.1c0.4,1.5,0.6,3,0.7,4.3
		c0.1,1.4-0.1,2.6-0.4,3.7c-0.3,1.1-0.8,1.8-1.6,2.2C172.3,139.5,171.5,139.7,170.7,139.7z M174,115.8c1,0.1,2.3,0.3,3.7,0.5
		c1.5,0.2,2.9,0.5,4.5,0.8c1.5,0.3,3,0.6,4.5,1c1.4,0.4,2.6,0.8,3.6,1.3l-1.7-4.8c-1.9-0.9-3.8-1.6-5.9-2.3c-2-0.7-4.1-1.2-6.2-1.4
		c-2.1-0.3-4.2-0.3-6.3,0c-2.1,0.3-4.1,0.9-6.2,2c-2.4,1.2-4.3,2.7-5.7,4.5c-1.5,1.8-2.5,3.8-3,6c-0.5,2.2-0.7,4.5-0.3,6.8
		c0.3,2.4,1.1,4.8,2.3,7.1c0.9,1.7,1.9,3.3,3.2,4.8c1.2,1.5,2.6,2.6,4.1,3.5c1.5,0.9,3.2,1.4,4.9,1.5c1.8,0.1,3.6-0.3,5.4-1.2
		c1.3-0.7,2.4-1.5,3.3-2.5c0.9-1,1.7-2.2,2.3-3.4c0.6-1.3,1-2.6,1.2-4c0.2-1.4,0.3-2.9,0.2-4.3c-0.1-1.5-0.3-2.9-0.7-4.3
		c-0.4-1.4-0.9-2.8-1.5-4c-0.6-1.3-1.5-2.5-2.5-3.7c-1-1.2-2.1-2.3-3.4-3.2L174,115.8z"/>
	<path class="st0" d="M189.9,127.3c0.4,1.1,0.9,2.2,1.4,3.4c0.5,1.2,1.1,2.2,1.8,3.1c0.7,0.9,1.5,1.6,2.4,2c0.9,0.4,2.1,0.4,3.4,0
		c0.8-0.3,1.5-0.9,2.2-1.9s1.3-2.3,1.8-3.7c0.5-1.5,1-3,1.4-4.7c0.4-1.7,0.7-3.3,0.9-4.9c0.3,0.9,0.8,1.6,1.4,2.3
		c0.6,0.7,1.4,1.2,2.3,1.6c0.9,0.4,1.9,0.7,2.9,0.7c1.1,0.1,2.2-0.1,3.5-0.5c1.5-0.5,2.9-1.2,4.3-2.3s2.7-2.3,3.9-3.8l-2.6-8
		c-0.8,1-1.5,1.9-2.3,2.7c-0.7,0.7-1.4,1.4-2.2,2c-0.8,0.6-1.5,1.1-2.2,1.3c-0.9,0.3-1.7,0.4-2.4,0.4c-0.7-0.1-1.2-0.2-1.7-0.6
		s-0.9-0.7-1.2-1.2c-0.3-0.5-0.5-1-0.7-1.5c-0.2-0.5-0.3-1-0.4-1.6c-0.1-0.5-0.1-1-0.1-1.4c0-0.5,0-0.9,0-1.4
		c0.1-1.3,0.3-2.4,0.5-3.3c0.2-1,0.3-1.8,0.4-2.6c0.1-0.8,0.1-1.5,0.1-2.1c0-0.6-0.1-1.3-0.3-1.9c-0.3-0.8-0.9-1.4-1.9-1.7
		c-1-0.3-2.1-0.2-3.4,0.2c-0.5,0.2-1,0.4-1.4,0.7c-0.4,0.3-0.7,0.6-1,0.9c-0.3,0.3-0.5,0.7-0.6,1.1c-0.1,0.4-0.2,0.7-0.1,1.1
		l-2.1,24.3l-0.5,0.2l-5.6-22.1c-0.2-0.6-0.6-1-1.2-1.4c-0.6-0.3-1.2-0.4-2-0.1c-0.1,0-0.2,0.1-0.3,0.1s-0.2,0.1-0.3,0.2l-3.9,2
		c-0.7,0.3-0.9,1.2-0.7,2.6c0.2,1.4,0.7,3.2,1.4,5.6c0.3,0.9,0.6,1.8,0.9,2.7c0.3,0.9,0.6,1.8,1,2.8c0.4,1,0.8,2.1,1.3,3.4
		c0.5,1.2,1,2.7,1.6,4.4L189.9,127.3z"/>
	<path class="st0" d="M222.5,87.4c1.2,0.8,2.8,1,4.9,0.6c1.2-0.2,2.2-0.6,3-1.1c0.8-0.5,1.4-1.1,1.9-1.8s0.7-1.4,0.8-2.2
		c0.1-0.8,0.1-1.6-0.1-2.4c-0.2-0.9-0.5-1.6-0.9-2.2c-0.4-0.6-1-1-1.6-1.3c-0.6-0.3-1.3-0.4-2.1-0.5c-0.8,0-1.6,0-2.4,0.2
		c-1.3,0.3-2.4,0.7-3.2,1.2s-1.4,1.2-1.8,1.9s-0.7,1.4-0.8,2.1c-0.1,0.7-0.1,1.4,0,1.9C220.6,85.4,221.3,86.6,222.5,87.4z
		 M241.6,109.9c-0.7,0.8-1.4,1.7-2.2,2.8c-0.8,1.1-1.7,2.1-2.6,3.2c-0.9,1-1.8,1.9-2.7,2.7c-0.9,0.8-1.8,1.3-2.7,1.4
		c-0.7,0.1-1.3-0.1-1.6-0.7c-0.4-0.6-0.6-1.4-0.8-2.5c-0.2-1.1-0.3-2.3-0.3-3.7c0-1.4,0-2.8,0.1-4.3c0.1-1.5,0.2-3,0.3-4.5
		c0.1-1.5,0.2-2.9,0.4-4.2c0.1-1.3,0.2-2.5,0.2-3.5c0-1,0-1.8-0.1-2.3c-0.1-0.6-0.4-1.1-0.8-1.4c-0.4-0.3-1.1-0.3-2.1-0.2
		c-0.5,0.1-1.1,0.3-1.8,0.5c-0.6,0.3-1.3,0.6-1.8,1c-0.6,0.4-1.1,0.8-1.5,1.4c-0.4,0.5-0.6,1.1-0.7,1.8c-0.1,1.8-0.2,3.9-0.4,6.1
		c-0.2,2.2-0.3,4.4-0.4,6.6s-0.1,4.3-0.1,6.3c0,2,0.2,3.8,0.5,5.3c0.2,1.1,0.5,2,0.9,2.8c0.4,0.8,0.9,1.5,1.5,2
		c0.6,0.5,1.4,0.9,2.3,1c0.9,0.2,2,0.2,3.2-0.1c1.4-0.3,2.8-0.8,4.2-1.6c1.4-0.8,2.8-1.7,4.1-2.7c1.3-1,2.5-2.1,3.6-3.2
		c1.1-1.1,2-2.2,2.7-3.1L241.6,109.9z"/>
	<path class="st0" d="M246.6,106.1c0-0.7,0-1.5,0.1-2.3c0.1-0.8,0.2-1.6,0.5-2.4c0.2-0.8,0.6-1.5,1-2.2s1-1.2,1.7-1.6
		s1.6-0.7,2.6-0.8c0.6,0,1.1,0.3,1.5,0.9c0.5,0.7,0.7,1.5,0.8,2.6c0.1,0.8-0.2,1.6-0.7,2.4c-0.5,0.9-1.2,1.7-2,2.4
		c-0.8,0.8-1.7,1.4-2.7,1.9c-1,0.5-1.9,0.8-2.7,0.9C246.6,107.4,246.6,106.8,246.6,106.1z M257.1,123.5c1.4-0.4,2.7-1,3.9-1.6
		c1.3-0.6,2.4-1.4,3.6-2.2c1.1-0.8,2.2-1.6,3.1-2.4c2.2-1.9,4.3-4,6.2-6.3l-5-4.4c-0.8,1-1.9,2-3.1,3.2c-1.2,1.1-2.6,2.2-4,3.2
		c-1.4,1-2.9,1.8-4.4,2.6c-1.5,0.7-3,1.1-4.4,1.3c-0.5,0-0.9,0-1.3,0c-0.4-0.1-0.8-0.2-1.2-0.4c-0.4-0.2-0.8-0.5-1.1-0.9
		c-0.4-0.4-0.8-0.9-1.2-1.5c2-0.8,3.9-1.7,5.6-2.9c1.7-1.2,3.1-2.5,4.3-3.9c1.2-1.4,2.1-2.9,2.7-4.4c0.6-1.5,0.8-3.1,0.7-4.5
		c-0.1-1.4-0.5-2.6-1-3.6c-0.6-1.1-1.3-1.9-2.2-2.6c-0.9-0.7-2-1.2-3.1-1.5s-2.4-0.4-3.8-0.3c-1.6,0.1-3.1,0.6-4.4,1.3
		c-1.3,0.7-2.4,1.6-3.4,2.7c-1,1.1-1.8,2.3-2.5,3.7s-1.3,2.8-1.7,4.3c-0.4,1.5-0.7,3-0.8,4.5c-0.1,1.5-0.1,2.9,0,4.3
		c0.2,2,0.6,3.8,1.3,5.6c0.7,1.8,1.7,3.3,2.9,4.5c1.2,1.3,2.7,2.2,4.5,2.9s3.7,0.9,6,0.7C254.3,124.2,255.7,123.9,257.1,123.5z"/>
	<path class="st0" d="M303.5,63.4c-2,0-4,0.2-5.8,0.6c-1.9,0.4-3.6,1-5.2,1.8c-1.6,0.8-3.1,1.8-4.4,3.1c-1.3,1.3-2.4,2.8-3.2,4.6
		c-0.9,1.8-1.5,3.8-1.8,6.1c-0.3,2.4,0,3.7,1.1,3.8c0.8,0.1,1.8-0.5,3.1-1.8s3-3.2,5.1-5.6c0.8-1,1.9-1.8,3.2-2.4s2.9-1,4.7-1.3
		s3.6-0.4,5.6-0.3c2,0,4,0.2,6,0.5c2.7,0.4,5.2,1.1,7.3,2.2c2.2,1.1,4,2.5,5.4,4.3c1.4,1.7,2.4,3.7,3,6c0.6,2.3,0.7,4.8,0.3,7.6
		c-0.3,2.2-0.9,4.5-1.8,6.8c-0.9,2.3-2,4.6-3.3,6.8c-1.3,2.2-2.9,4.2-4.6,6.1c-1.7,1.9-3.6,3.5-5.6,4.8c-2,1.3-4.2,2.3-6.4,2.9
		c-2.3,0.6-4.6,0.8-7,0.5c-0.8-0.1-1.4-0.3-1.8-0.5c-0.4-0.2-0.7-0.5-0.9-0.9c-0.2-0.4-0.3-0.9-0.2-1.5c0-0.6,0.1-1.3,0.2-2.2
		c0.1-0.8,0.3-1.7,0.4-2.5c0.2-0.9,0.4-1.9,0.7-3c0.3-1.1,0.7-2.5,1.1-4c0.4-1.5,1-3.3,1.6-5.5c0.6-1.9,1.2-3.9,1.8-5.9
		c0.6-2,1.3-4,2.1-5.9c0.8-1.9,1.7-3.7,2.6-5.4c1-1.7,2.1-3.2,3.4-4.5c-0.9-2.1-2.2-3.3-3.9-3.5c-1.4-0.2-3,0.2-4.8,1.1
		c-2.3,2.6-4.3,5.5-6,8.9c-1.7,3.4-3.1,7-4.2,10.9c-1.2,3.8-2.1,7.8-2.9,11.9c-0.8,4.1-1.4,8.1-2,12c-0.1,0.4-0.1,0.7-0.1,1
		c0,0.3,0,0.5,0.1,0.7s0.2,0.4,0.3,0.5c0.2,0.2,0.4,0.3,0.7,0.4c0.7,0.5,1.5,1,2.4,1.5c0.9,0.5,1.9,1,3,1.4s2.1,0.8,3.3,1.1
		c1.1,0.3,2.3,0.6,3.4,0.7c3.3,0.5,6.4,0.4,9.4-0.3c3-0.7,5.8-1.8,8.4-3.3c2.6-1.5,5-3.4,7.2-5.7c2.2-2.3,4.1-4.7,5.8-7.4
		c1.7-2.7,3-5.5,4.1-8.5c1.1-3,1.9-6,2.3-8.9c0.3-2.2,0.4-4.3,0.2-6.5c-0.1-2.1-0.6-4.2-1.3-6.2c-0.7-2-1.7-3.9-3.1-5.7
		c-1.3-1.8-3.1-3.4-5.2-4.9c-2.1-1.5-4.6-2.7-7.5-3.8c-2.9-1.1-6.3-1.9-10.2-2.4C307.6,63.5,305.6,63.4,303.5,63.4z"/>
	<path class="st0" d="M340.7,118.7c0.6-1,1.4-2.1,2.2-3s1.8-1.8,2.8-2.6c1-0.8,2-1.5,3.1-2c1-0.5,2.1-0.9,3.1-1.1c1-0.2,2-0.1,3,0.2
		l-5.4,9.3c-0.3,0.7-0.8,1.5-1.5,2.5c-0.7,1-1.4,1.9-2.3,2.8c-0.8,0.9-1.7,1.5-2.6,2c-0.9,0.5-1.8,0.6-2.6,0.3
		c-0.5-0.2-0.9-0.4-1.2-0.8c-0.3-0.4-0.4-0.8-0.5-1.3c-0.1-0.5,0-1,0.1-1.6s0.2-1.1,0.4-1.7C339.6,120.7,340.1,119.7,340.7,118.7z
		 M368.3,126c-1.7,1.2-3.2,2.2-4.8,3c-0.7,0.4-1.3,0.7-2,1c-0.7,0.3-1.4,0.6-2,0.8c-0.7,0.2-1.3,0.3-1.9,0.4c-0.6,0.1-1.1,0-1.6-0.1
		c-0.6-0.2-0.9-0.7-0.9-1.3c0-0.7,0.2-1.5,0.5-2.6c0.4-1.2,1-2.5,1.7-3.9c0.7-1.3,1.4-2.6,2.1-3.9c0.7-1.3,1.4-2.6,2.1-3.8
		c0.7-1.3,1.2-2.4,1.5-3.5c0.2-0.7,0.4-1.3,0.4-1.7s-0.1-0.8-0.2-1.1c-0.2-0.3-0.4-0.5-0.6-0.7s-0.6-0.3-0.9-0.4
		c-0.2-0.1-0.5-0.2-0.8-0.2c-0.3-0.1-0.5-0.2-0.8-0.2c-0.3-0.1-0.6-0.2-0.9-0.3c-0.3-0.1-0.5-0.3-0.8-0.5c-0.2-0.2-0.4-0.5-0.5-0.8
		c-0.1-0.3-0.2-0.6-0.3-1c-0.1-0.3-0.3-0.6-0.5-0.9c-0.2-0.3-0.6-0.5-1.1-0.7c-1.6-0.5-3.2-0.7-4.9-0.5c-1.7,0.2-3.5,0.6-5.2,1.3
		c-1.7,0.7-3.4,1.6-5.1,2.7c-1.7,1.1-3.2,2.4-4.6,3.9c-1.4,1.4-2.7,3-3.7,4.6c-1.1,1.6-1.9,3.3-2.5,5c-0.5,1.5-0.7,2.9-0.6,4.3
		s0.4,2.6,0.9,3.7c0.5,1.1,1.2,2,2.1,2.8c0.9,0.8,1.9,1.4,3,1.7c1,0.3,2.1,0.5,3.2,0.5c1.1,0,2.3-0.1,3.4-0.3
		c1.1-0.2,2.2-0.5,3.2-0.9c1-0.4,1.9-0.8,2.7-1.3c0.1,2.1,0.5,3.8,1.2,5.1c0.7,1.3,1.8,2.2,3.3,2.7c1.2,0.4,2.6,0.5,4.1,0.3
		c1.5-0.2,2.9-0.6,4.3-1.1s2.7-1.1,3.9-1.8c1.2-0.7,2.2-1.3,2.9-1.9L368.3,126z"/>
	<path class="st0" d="M397.7,104.5c-0.9,0.9-2,1.8-3.1,2.7c-1.2,0.9-2.4,1.9-3.8,2.8c-1.3,0.9-2.6,1.7-3.8,2.5
		c-0.3-0.2-0.6-0.4-0.9-0.6c-0.3-0.2-0.6-0.4-0.9-0.6c1.3-1.5,2.6-3.1,4-4.7c1.4-1.6,2.8-3,4.1-4.3s2.5-2.2,3.6-2.9s1.9-0.9,2.4-0.6
		c0.4,0.2,0.7,0.5,0.8,0.7c0.1,0.3,0.2,0.6,0.2,0.9s-0.1,0.6-0.2,0.9c-0.1,0.3-0.2,0.6-0.4,0.8C399.3,102.8,398.6,103.6,397.7,104.5
		z M393.2,139.6c-1,0.4-2.1,0.7-3.2,1c-1.1,0.3-2.3,0.5-3.5,0.6c-1.2,0.2-2.3,0.3-3.5,0.3s-2.2,0.1-3.2,0c-1,0-1.9-0.1-2.7-0.3
		c-0.8-0.1-1.4-0.3-1.8-0.5c-0.7-0.4-1.3-0.8-1.8-1.3s-0.8-1.1-0.9-1.9c-0.1-0.7-0.1-1.5,0.1-2.4s0.6-1.9,1.2-3.1
		c0.2-0.4,0.5-0.9,0.8-1.5c0.3-0.5,0.6-1.1,0.9-1.6c0.3-0.6,0.6-1.1,1-1.7s0.6-1.1,0.9-1.7c0.7-1.2,1.5-2.5,2.2-3.8
		c0.9-0.4,1.8-0.8,2.9-1.3c1-0.5,2.1-1,3.2-1.5l12.2,6.3c0.5,0.3,1.1,0.3,1.8,0c0.7-0.2,1.2-0.7,1.6-1.5c0.3-0.6,0.5-1.2,0.5-1.7
		c0-0.5-0.2-0.9-0.6-1.1c-0.4-0.2-0.8-0.5-1.3-0.8c-0.5-0.3-1.1-0.6-1.8-1c-0.6-0.4-1.3-0.7-1.9-1.1s-1.3-0.7-1.9-1.1
		c-0.6-0.3-1.1-0.6-1.5-0.8c-0.4-0.2-0.8-0.4-0.9-0.5c1.4-0.8,2.8-1.7,4.1-2.5c1.3-0.9,2.6-1.8,3.7-2.7s2.1-1.9,3-2.9
		c0.9-1,1.6-2,2.2-3.1c0.6-1.2,1.1-2.5,1.4-3.8c0.3-1.3,0.4-2.5,0.3-3.6c-0.1-1.1-0.4-2.1-0.9-3c-0.5-0.9-1.2-1.6-2.1-2.1
		c-1.4-0.7-3.1-0.8-5.1-0.2c-2,0.6-4,1.7-6.2,3.2c-2.2,1.5-4.4,3.4-6.7,5.6s-4.4,4.6-6.5,7.2c-0.2-0.1-0.6-0.3-1.2-0.6
		c-0.6-0.3-1.2-0.6-1.9-1c-0.7-0.4-1.4-0.8-2.2-1.2c-0.8-0.4-1.5-0.7-2.2-0.9c-0.7-0.2-1.3-0.3-1.8-0.3c-0.5,0-0.9,0.2-1.1,0.7
		c-0.1,0.2-0.2,0.4-0.3,0.7c-0.1,0.3-0.2,0.6-0.2,0.9c0,0.3,0.1,0.6,0.3,1c0.2,0.3,0.5,0.6,1,1c1.1,0.7,1.9,1.3,2.5,1.7
		c0.6,0.4,1,0.7,1.4,1c0.4,0.3,0.7,0.5,1,0.8c0.3,0.3,0.8,0.6,1.4,1c-0.9,1.3-1.8,2.7-2.7,4.1c-0.9,1.4-1.6,2.7-2.3,4
		c-1.7,3.3-3,6.3-3.9,9.2c-0.9,2.8-1.5,5.4-1.6,7.6c-0.1,2.3,0.2,4.2,0.9,5.8c0.7,1.6,1.9,2.8,3.5,3.7c0.8,0.4,1.7,0.7,2.9,0.9
		c1.1,0.2,2.5,0.3,4,0.4c1.6,0,3.4,0,5.4,0s4.4-0.2,7.1-0.3L393.2,139.6z"/>
	<path class="st0" d="M397.3,146.2c0.9-0.8,2-1.5,3.1-2.2c1.1-0.7,2.3-1.2,3.5-1.7s2.4-0.8,3.5-1c1.2-0.2,2.3-0.2,3.3,0
		c1,0.2,2,0.5,2.7,1.1l-8,7.2c-0.5,0.6-1.3,1.2-2.2,1.9c-0.9,0.7-1.9,1.4-3,1.9s-2.1,0.9-3.1,1.1c-1,0.2-1.9,0-2.6-0.5
		c-0.4-0.3-0.7-0.7-0.9-1.1c-0.1-0.4-0.1-0.9-0.1-1.4c0.1-0.5,0.3-1,0.5-1.5c0.3-0.5,0.6-1,0.9-1.5
		C395.6,147.9,396.4,147,397.3,146.2z M421.3,161.7c-1.9,0.6-3.7,1.1-5.5,1.4c-0.7,0.1-1.5,0.3-2.2,0.3c-0.8,0.1-1.5,0.1-2.2,0.1
		c-0.7,0-1.3-0.1-1.9-0.2c-0.6-0.1-1.1-0.3-1.5-0.6c-0.5-0.4-0.7-0.9-0.5-1.5c0.2-0.6,0.7-1.4,1.3-2.3c0.8-1.1,1.7-2.1,2.8-3.2
		c1.1-1,2.2-2.1,3.3-3.1c1.1-1,2.2-2,3.2-3c1-1,1.9-1.9,2.6-2.9c0.4-0.6,0.7-1.1,0.9-1.5c0.1-0.4,0.2-0.8,0.1-1.1s-0.2-0.6-0.4-0.9
		c-0.2-0.2-0.5-0.5-0.7-0.7c-0.2-0.2-0.4-0.3-0.7-0.5c-0.2-0.2-0.4-0.3-0.7-0.5c-0.2-0.2-0.5-0.4-0.7-0.6c-0.2-0.2-0.4-0.4-0.6-0.7
		c-0.2-0.3-0.2-0.6-0.2-0.9s0-0.7,0-1c0-0.3-0.1-0.7-0.2-1.1c-0.1-0.4-0.4-0.7-0.8-1c-1.3-1-2.8-1.7-4.5-2c-1.7-0.4-3.5-0.5-5.3-0.4
		c-1.9,0.1-3.8,0.5-5.7,1c-1.9,0.6-3.8,1.3-5.6,2.3c-1.8,0.9-3.4,2-5,3.2c-1.5,1.2-2.8,2.6-3.9,4c-0.9,1.3-1.6,2.6-1.9,3.9
		s-0.4,2.6-0.3,3.8s0.5,2.3,1.1,3.3s1.4,1.9,2.3,2.6c0.9,0.6,1.8,1.1,2.9,1.5c1.1,0.3,2.2,0.6,3.3,0.7s2.2,0.2,3.3,0.1
		s2.1-0.2,2.9-0.4c-0.5,2-0.7,3.7-0.4,5.2c0.2,1.4,1,2.6,2.3,3.6c1.1,0.8,2.3,1.3,3.8,1.6c1.4,0.3,2.9,0.4,4.4,0.3
		c1.5-0.1,2.9-0.2,4.2-0.5c1.4-0.3,2.5-0.6,3.4-0.9L421.3,161.7z"/>
	<path class="st0" d="M461.5,156c1.5,0.7,3,1.7,4.6,2.9c1.6,1.2,3.1,2.6,4.6,4.2s3,3.3,4.4,5.1c1.1,1.4,2.1,2.9,3,4.4
		c0.9,1.5,1.7,3,2.4,4.4c0.7,1.5,1.3,2.9,1.7,4.2c0.4,1.4,0.7,2.6,0.8,3.8c0.1,1.2,0,2.2-0.3,3.1c-0.3,0.9-0.8,1.7-1.6,2.2
		c-1.2,0.9-2.5,1.4-3.9,1.6c-1.4,0.2-2.9,0.1-4.5-0.4c-1.6-0.5-3.1-1.3-4.7-2.4c-1.6-1.1-3-2.6-4.4-4.5c-0.6-0.8-1.1-1.5-1.6-2.3
		c-0.4-0.7-1-1.5-1.6-2.3c-0.5-0.6-0.9-1.1-1.2-1.3c-0.4-0.3-0.7-0.4-1-0.5s-0.7,0-1,0.2c-0.3,0.2-0.7,0.4-1.1,0.7
		c-0.8,0.6-1.4,1.4-1.6,2.2c-0.2,0.8-0.2,1.7-0.1,2.6c0.2,0.9,0.5,1.9,0.9,3c0.4,1,0.9,2.1,1.3,3.2c0.4,1.1,0.8,2.2,1.2,3.3
		c0.4,1.1,0.5,2.2,0.6,3.2c0,1.1-0.2,2.1-0.6,3c-0.4,1-1.2,1.9-2.3,2.7c-1.9,1.4-3.8,2.3-5.6,2.6s-3.7,0.2-5.4-0.4
		c-1.7-0.5-3.4-1.4-4.9-2.7c-1.5-1.2-2.9-2.7-4.2-4.3c-1-1.3-1.9-2.8-2.6-4.3c-0.7-1.5-1.4-3-1.9-4.5c0-0.2,0.1-0.5,0.3-0.7
		c0.2-0.3,0.4-0.5,0.7-0.8c0.3-0.3,0.5-0.5,0.8-0.7c0.3-0.2,0.5-0.4,0.6-0.5c1-0.7,2-1.5,3-2.2c1.1-0.8,2.1-1.5,3.2-2.2
		c1.1-0.7,2.2-1.5,3.2-2.2c1.1-0.7,2.1-1.3,3-1.9c1.7-1,3.5-2.1,5.3-3.1c1.9-1,3.7-1.9,5.7-2.7c1.9-0.8,3.8-1.4,5.7-1.9
		c1.9-0.5,3.8-0.7,5.7-0.7c0.9-2.1,0.8-3.9-0.3-5.3c-0.8-1.1-2.2-2-4.2-2.6c-3.4,0.2-7,0.9-10.5,2.1c-3.6,1.2-7.1,2.8-10.7,4.7
		c-3.5,1.9-7,4-10.5,6.4c-3.4,2.3-6.8,4.7-9.9,7.1c-0.7,0.5-1,1.1-1,1.7c0,0.6,0.2,1.2,0.5,1.9c0.5,1.5,1,3.1,1.7,4.8
		c0.6,1.6,1.4,3.3,2.1,4.9c0.8,1.6,1.6,3.2,2.5,4.7c0.9,1.5,1.8,2.9,2.7,4.1c1.5,2,3.1,3.6,4.7,4.9c1.7,1.3,3.4,2.3,5.1,3.1
		c1.7,0.7,3.5,1.2,5.2,1.4c1.7,0.2,3.4,0.2,5.1,0c1.6-0.2,3.2-0.6,4.7-1.2c1.5-0.6,2.8-1.4,4-2.3c1.5-1.1,2.7-2.4,3.7-3.9
		c1-1.5,1.6-3.1,1.9-4.8c0.3-1.7,0.2-3.5-0.2-5.4c-0.5-1.9-1.4-3.7-2.8-5.6c2.3,2.9,4.6,5.2,7,6.8c2.4,1.6,4.6,2.6,6.8,3.1
		s4.2,0.5,6.2,0.1s3.6-1.2,5.1-2.3c1.2-0.9,2.2-2.2,2.7-3.8c0.6-1.6,0.9-3.4,0.9-5.4c0-2-0.2-4.2-0.7-6.6c-0.5-2.3-1.2-4.7-2.2-7.2
		c-0.9-2.4-2.1-4.9-3.4-7.3c-1.3-2.4-2.8-4.7-4.4-6.9c-1.4-1.9-2.9-3.6-4.5-5.1c-1.6-1.6-3.2-2.9-4.9-4.1c-1.7-1.2-3.5-2.1-5.3-2.8
		c-1.8-0.7-3.7-1.1-5.5-1.2c-1.9-0.1-3.8,0.2-5.7,0.7c-1.9,0.6-3.8,1.6-5.6,3c-1.9,1.5-2.6,2.6-1.9,3.4c0.5,0.6,1.6,1,3.5,1.1
		c1.9,0.1,4.4,0,7.6-0.5C458.6,155,460,155.3,461.5,156z"/>
	<path class="st0" d="M463.2,221.5c1.2-0.3,2.4-0.5,3.7-0.6c1.3-0.1,2.6-0.1,3.8,0c1.3,0.1,2.5,0.4,3.6,0.7c1.1,0.3,2.1,0.8,3,1.4
		c0.9,0.6,1.5,1.3,2,2.2l-10.4,2.9c-0.7,0.3-1.7,0.5-2.8,0.8s-2.4,0.4-3.6,0.4s-2.3-0.1-3.3-0.4c-1-0.3-1.7-0.8-2.1-1.6
		c-0.3-0.5-0.3-1-0.3-1.4c0.1-0.4,0.3-0.9,0.6-1.3c0.3-0.4,0.7-0.8,1.1-1.1c0.5-0.3,1-0.6,1.5-0.9
		C460.9,222.2,462,221.8,463.2,221.5z M477.8,246.1c-2-0.3-3.8-0.7-5.5-1.1c-0.7-0.2-1.4-0.4-2.2-0.7s-1.4-0.6-2-0.9
		c-0.6-0.3-1.2-0.7-1.6-1c-0.5-0.4-0.8-0.8-1.1-1.2c-0.3-0.6-0.2-1.1,0.2-1.6c0.5-0.5,1.2-1,2.2-1.5c1.2-0.6,2.5-1.1,3.9-1.6
		s2.8-0.9,4.3-1.3s2.8-0.8,4.2-1.3c1.4-0.4,2.5-0.9,3.6-1.4c0.7-0.3,1.1-0.7,1.5-1c0.3-0.3,0.5-0.6,0.6-1c0.1-0.3,0.1-0.6,0-0.9
		c-0.1-0.3-0.2-0.6-0.4-0.9c-0.1-0.2-0.2-0.5-0.4-0.7c-0.1-0.2-0.3-0.5-0.4-0.7c-0.1-0.3-0.3-0.6-0.4-0.8s-0.2-0.6-0.2-0.9
		c0-0.3,0-0.6,0.2-0.9c0.1-0.3,0.3-0.6,0.4-0.9s0.3-0.6,0.3-1s-0.1-0.8-0.3-1.3c-0.8-1.5-1.8-2.7-3.2-3.8c-1.4-1.1-2.9-2-4.6-2.7
		c-1.7-0.7-3.6-1.3-5.6-1.6c-2-0.3-4-0.5-6-0.4c-2,0-4,0.3-5.9,0.7s-3.7,1-5.3,1.9c-1.4,0.7-2.5,1.6-3.4,2.6c-0.9,1-1.5,2.1-1.9,3.3
		c-0.4,1.1-0.5,2.3-0.5,3.5s0.4,2.3,0.9,3.3c0.5,1,1.1,1.8,2,2.6c0.8,0.8,1.7,1.5,2.7,2.1c1,0.6,1.9,1.1,2.9,1.6s1.9,0.7,2.8,0.9
		c-1.4,1.6-2.3,3.1-2.7,4.5c-0.4,1.4-0.3,2.8,0.5,4.2c0.6,1.2,1.5,2.2,2.7,3.1c1.2,0.9,2.4,1.6,3.8,2.2c1.4,0.6,2.7,1.1,4,1.4
		c1.3,0.3,2.5,0.6,3.4,0.7L477.8,246.1z"/>
	<path class="st0" d="M482.2,256c-0.3,0.2-0.7,0.5-1.2,0.9c-0.5,0.3-0.9,0.7-1.5,1s-1.1,0.7-1.7,1c-0.6,0.3-1.2,0.6-1.8,0.8
		c-0.7,0.3-1.4,0.4-2.1,0.5c-0.7,0.1-1.3,0.1-1.9-0.1s-1.2-0.5-1.7-0.9c-0.5-0.5-0.9-1.1-1.2-2c-0.3-0.7-0.3-1.4-0.2-2.1
		s0.3-1.3,0.6-1.9c0.2-0.6,0.5-1.1,0.7-1.5c0.2-0.5,0.3-0.8,0.2-1.1L482.2,256z M472.2,244.1c-0.4-0.3-0.8-0.5-1.3-0.7
		c-0.5-0.2-1-0.4-1.6-0.5c-0.6-0.1-1.1,0-1.6,0.2c-0.6,0.2-1,0.5-1.3,0.7c-0.3,0.3-0.4,0.5-0.5,0.8s0,0.6,0,0.9
		c0.1,0.3,0.2,0.7,0.3,1c0.1,0.3,0.2,0.6,0.4,0.9c0.1,0.3,0.3,0.6,0.5,0.9c-1.2,0.6-2.1,1.3-2.7,2.1c-0.7,0.9-1.1,1.8-1.3,2.9
		c-0.2,1.1-0.2,2.2,0,3.4c0.2,1.2,0.5,2.5,1,3.8c0.7,1.8,1.6,3.7,2.8,5.6c1.2,1.9,2.5,3.7,4,5.5c1.5,1.7,3,3.4,4.6,4.8
		s3.2,2.7,4.8,3.7l7.5-2.8c-1.2-0.8-2.3-1.6-3.3-2.4c-1-0.9-1.9-1.7-2.7-2.5c-0.8-0.8-1.7-1.6-2.4-2.4s-1.6-1.5-2.4-2.1
		c1.4-0.5,2.7-1,3.7-1.5c1-0.5,1.9-1,2.6-1.4c0.7-0.5,1.4-0.9,1.9-1.3c0.6-0.4,1.1-0.8,1.6-1.2c0.5-0.4,1-0.7,1.5-1
		c0.5-0.3,1.2-0.6,1.8-0.9c0.3,0,0.7,0.1,1.4,0.4c0.7,0.3,1.4,0.6,2.2,0.8s1.6,0.5,2.4,0.7c0.8,0.2,1.5,0.2,2,0
		c0.3-0.1,0.6-0.2,0.9-0.4c0.4-0.2,0.6-0.5,0.9-0.9c0.2-0.4,0.4-0.9,0.4-1.6c0-0.7-0.2-1.5-0.6-2.6c-0.2-0.7-0.6-1.2-0.9-1.7
		c-0.4-0.5-0.8-0.8-1.3-1.2s-1-0.6-1.5-0.8c-0.5-0.2-1-0.4-1.5-0.5c-2.3-0.8-4.3-1.4-5.8-1.8c-1.5-0.5-2.8-0.8-3.9-1.2
		c-1.1-0.3-2-0.6-2.8-0.8c-0.8-0.2-1.6-0.5-2.4-0.9c-0.8-0.3-1.7-0.8-2.7-1.3s-2.3-1.2-3.8-2.1C472.9,244.6,472.6,244.4,472.2,244.1
		z"/>
	<path class="st0" d="M490.5,281.2c0.7-0.1,1.5-0.2,2.3-0.3c0.8,0,1.6,0,2.4,0.1c0.8,0.1,1.6,0.3,2.3,0.6c0.7,0.3,1.3,0.8,1.9,1.4
		c0.6,0.6,1,1.4,1.2,2.4c0.1,0.6-0.1,1.1-0.6,1.7s-1.4,1-2.4,1.2c-0.7,0.2-1.6,0.1-2.5-0.3c-0.9-0.4-1.9-0.9-2.7-1.6
		s-1.7-1.4-2.4-2.3c-0.7-0.9-1.1-1.7-1.3-2.6C489.2,281.5,489.8,281.4,490.5,281.2z M475.1,294.5c0.7,1.3,1.4,2.5,2.3,3.6
		c0.8,1.1,1.8,2.2,2.7,3.2c1,1,1.9,1.9,2.9,2.7c2.2,1.9,4.6,3.6,7.3,5.1l3.5-5.7c-1.1-0.7-2.3-1.5-3.7-2.6c-1.3-1-2.6-2.2-3.8-3.4
		c-1.2-1.2-2.3-2.6-3.2-4c-1-1.4-1.6-2.8-2-4.2c-0.1-0.4-0.2-0.9-0.2-1.3s0.1-0.8,0.2-1.2c0.1-0.4,0.4-0.8,0.7-1.3s0.8-0.9,1.3-1.4
		c1.1,1.9,2.3,3.5,3.8,5s3,2.7,4.6,3.6c1.6,0.9,3.2,1.5,4.8,1.9c1.6,0.3,3.1,0.3,4.6-0.1c1.3-0.3,2.5-0.9,3.4-1.6
		c0.9-0.7,1.7-1.6,2.2-2.6c0.5-1,0.9-2.1,1-3.4c0.1-1.2,0-2.5-0.3-3.8c-0.4-1.6-1.1-3-2-4.1c-0.9-1.2-2-2.1-3.2-3
		c-1.2-0.8-2.6-1.4-4-1.9c-1.5-0.5-3-0.8-4.5-0.9c-1.5-0.2-3-0.2-4.6-0.1s-2.9,0.3-4.2,0.7c-1.9,0.5-3.7,1.2-5.3,2.2
		c-1.6,1-2.9,2.2-4,3.6s-1.8,3.1-2.1,4.9s-0.3,3.8,0.3,6C473.9,291.9,474.4,293.2,475.1,294.5z"/>
</g>
</svg>
