<?xml version="1.0" encoding="utf-8"?>
<!-- Generator: Adobe Illustrator 20.1.0, SVG Export Plug-In . SVG Version: 6.00 Build 0)  -->
<svg version="1.1" id="Calque_2" xmlns="http://www.w3.org/2000/svg" xmlns:xlink="http://www.w3.org/1999/xlink" x="0px" y="0px"
	 viewBox="0 0 512 512" style="enable-background:new 0 0 512 512;" xml:space="preserve">
<style type="text/css">
	.st0{fill:#ffffff;}
</style>
<g>
	<path class="st0" d="M257,30.5c55.1,0,109.9,0.2,165-0.2c37.5-0.2,67.4,35.3,67.6,67.6c0.2,105.6,0.7,211.4-0.2,317
		c-0.2,36.4-31.2,70.9-71.1,70.9c-108.6,0-217.2,0.2-325.9-0.2c-25.6,0-44.9-12.8-58.5-34.5c-9.1-14.5-12.4-30.1-12.1-46.8
		c0.2-100,0.2-199.9,0-299.9C21.7,70.6,44,37,80.3,31.6c3.5-0.4,6.9-0.9,10.4-0.9C145.9,30.5,201.5,30.5,257,30.5z M255.4,377
		L255.4,377c41.2,0,82.4,0,123.6,0c13.2,0,18.2-5,18.2-18c0-62.7,0-125.1,0-187.8c0-13.2-5.6-18.9-18.6-18.9
		c-81.7,0-163.7,0-245.4,0c-12.8,0-18.9,6.1-18.9,18.9c0,62.7,0,125.1,0,187.8c0,12.1,5.9,18,17.8,18C173.1,377,214.2,377,255.4,377
		z M88.3,235.4c0-20.6,0-40.3,0-60.1c0-12.1-0.4-12.6-13-12.8c-7.8-0.2-12.6-4.6-13.2-12.4c-0.9-10.4,4.3-15.4,16.7-15.4
		c11.9,0,11.9,0,12.6-12.1c0-1.5,0-3.3,0.2-4.8c1.1-13.7,15.2-27.8,28.6-28.6c13.4-0.9,13.4-0.9,13.4-14.5c0-1.3,0-2.8,0-4.1
		c0.4-6.9-3-10-9.8-9.8c-8.9,0-17.8,0.2-26.9,0.2c-28.4-0.7-46,22.8-45.3,45.5c0.9,40.5,0.2,81.3,0.4,121.8c0,2.4,0.4,4.8,0.7,7.4
		C64.6,235.4,75.9,235.4,88.3,235.4z M423,277.3c0,16.3,0,32.5,0,48.6c0,12.4,1.1,13.4,13.2,13.4c24.1,0,24.1,0,24.1-24.3
		c0-28.8,0-57.9,0-86.7c0-9.3-2.2-11.3-10.6-11.5c-5.9,0-11.9,0.4-17.8,0.2c-6.7-0.2-8.9,2.6-8.9,9.3
		C423.3,243.2,423,260.4,423,277.3z M459.7,159.3c0-15.4,0-30.1,0-45.1c-29.9,0-59.2,0-88.2,0c0,5,0,9.1,0,13.2
		c0.9,0.4,1.3,0.7,2,0.7c3,0,5.9,0.2,8.9,0.2c20.2-0.7,34,8,41,27.1c0.7,1.7,3.3,3.7,5,3.7C438.4,159.5,448.8,159.3,459.7,159.3z
		 M371.4,403.5c-0.4,0.7-0.9,1.3-1.3,2c2,1.3,3.9,3.9,5.9,3.9c26.2,0.2,52.5,0.2,78.7,0c2,0,5.4-3.5,5.4-5.6
		c0.7-7.8,0.2-15.6,0-23.6c-0.2-7.4-3.7-11.5-11.5-11.7c-5.9,0-11.9,0-17.8-0.7c-4.8-0.4-6.7,1.3-8.5,6.1c-5.9,15.8-16,26.7-34,27.8
		C382.5,402.2,377.1,402.8,371.4,403.5z M52.3,409.5c28,0,54.9,0,81.5-0.2c2.2,0,4.3-2.2,6.5-3.5c-2.4-1.1-4.6-3-6.9-3
		c-21.9,0-37.3-8.7-44.7-30.1c-0.7-2.2-3.3-5-5.2-5c-8-0.2-16.3-0.2-24.3,1.1c-2.8,0.4-6.7,4.6-6.9,7.2
		C51.6,387,52.3,397.6,52.3,409.5z M185.6,113.8c4.8,11.5,13.4,13.7,23.4,13.7c27.1,0,54.2,0,81.3,0c6.7,0,13.7,0,20.2-0.9
		c7.2-0.9,13-4.6,15.2-12.8C278.9,113.8,232.7,113.8,185.6,113.8z M455.3,88.2c-3.7-14.3-16.9-25.8-30.8-26.7
		c-9.8-0.7-19.5-0.4-29.1-0.4c-18,0-17.8,0-16.9,18c0.2,7.4,3.7,9.8,10.6,9.8c18-0.4,36.2-0.4,54.2-0.4
		C447.1,88.2,451.2,88.2,455.3,88.2z M88.3,316.3L88.3,316.3c0-5.4-0.2-10.8,0.2-16.3c0.2-5-2.2-6.9-6.7-6.9c-7.4,0-14.5,0-21.9,0
		c-5.2,0-7.8,2.2-7.6,7.8c0.4,9.5,0.2,18.9,0,28.4c-0.2,6.5,3.5,9.5,9.3,10c6.5,0.4,13,0.2,19.5,0c5-0.2,8-2.6,7.6-8.2
		C87.8,326.1,88.3,321.1,88.3,316.3z M256.1,88.4C256.1,88.2,256.1,88.2,256.1,88.4c3.3-0.2,6.5-0.2,9.8-0.2
		c20.8,0.2,16.9,0.9,17.6-18c0.2-7.4-3.3-9.5-9.8-9.5c-9.1,0.2-18.4,0.2-27.5,0.2c-19.3,0-19.5,0.4-18.4,19.3c0.4,5.4,2.8,7.8,8,8
		C242.6,88.4,249.4,88.4,256.1,88.4z M59.4,435.3c6.3,9.5,13.2,16.7,22.5,17.8c15.2,2,30.6,2.2,46,2.2c7.2,0,5.4-6.7,5.4-11.3
		c0.2-4.8-1.5-8.7-7.2-8.7c-9.1,0-18.4,0-27.5,0C86.1,435.3,73.5,435.3,59.4,435.3z M452.5,435.3c-23.6,0-45.5,0-67.4,0
		c-8,0-6.3,5.9-6.5,10.4c-0.2,4.8-0.4,9.5,6.5,9.5c11.1,0,22.1,0,33.4,0C433,455.3,443,447.7,452.5,435.3z M255.9,455.5L255.9,455.5
		c6.7,0,13.4-0.2,20.4,0c8.2,0.2,7.2-5.4,7.2-10.6c0-5.4-0.4-9.8-7.6-9.8c-13.2,0.2-26.5,0.2-39.9,0c-6.7,0-8,3.9-8,9.5
		c0,5.4,0.2,10.6,7.6,10.6C242.2,455.5,249.2,455.5,255.9,455.5z M319.6,406.1c-0.4-0.9-1.1-2-1.5-2.8c-41.8,0-83.7,0-125.5,0
		c-0.4,0.9-0.9,1.7-1.1,2.4c2.2,1.3,4.1,3.7,6.3,3.7c38.4,0.2,77,0.2,115.3,0C315.1,409.3,317.2,407.1,319.6,406.1z M343.5,78
		c0-11.3-3.3-15.2-12.8-15.2c-9.8,0-13.9,4.1-13.9,13.4c0,11.5,4.1,16.3,14.1,16.3C340.4,92.3,343.5,89.1,343.5,78z M194.3,78
		c0.2-10.4-3.3-14.7-12.4-15.2c-10-0.4-14.1,3-14.3,11.9c-0.4,12.4,3.3,17.3,12.6,17.6C190.2,92.5,194.1,88.6,194.3,78z
		 M194.1,441.4c0-10.6-3.9-14.5-13.9-14.3c-9.3,0.2-12.8,4.1-12.6,14.5c0,10.2,3.7,13.9,13.4,13.7
		C191,455.3,194.3,451.8,194.1,441.4z M317,441.4c0,10.4,3.5,13.9,13.4,13.9c9.8,0,13-3.7,13-14.1s-3.7-14.1-13.2-14.1
		C320.5,427.3,317,431,317,441.4z M139.9,113.4c-10,0-18.9-0.2-27.8,0.2c-2.8,0-7.8,1.3-8,2.6c-0.7,4.8-0.2,10,0.7,14.7
		c0.2,0.9,3.3,2.2,4.8,1.7c10-2,20.2-4.3,30.4-6.7C139.9,122.9,139.9,118.6,139.9,113.4z M440.2,181.9c-5.4-0.7-10.4,0.2-10.4,6.7
		c0.2,5.9,4.8,6.7,10,6.7s10.2-0.7,10-7.4C449.7,182.1,445.2,181,440.2,181.9z M72.7,273.2c2.8-2.6,8-5,8.2-8
		c0.7-6.1-4.3-7.4-10-7.2c-4.8,0.2-9.3-0.2-9.3,6.7C61.8,271.6,66.2,271.6,72.7,273.2z"/>
	<path class="st0" d="M201,257.1c0-13.4,0.2-27.1,0-40.5c0-7.6,0.9-15,8.2-18.9c8.2-4.6,16.3-2.2,23.6,2.6
		c9.1,5.9,18,11.9,27.1,17.8c11.5,7.4,23.2,14.7,34.9,22.1c16.5,10.4,16.5,24.5,0,34.5c-16.3,10-32.7,19.7-49.2,29.7
		c-6.5,3.9-12.6,8.5-19.3,11.9c-13,6.9-24.9-0.4-25.2-15.2C200.8,286.4,201,271.6,201,257.1z"/>
</g>
</svg>
